# xmcd
#
# Track frame offsets:
#	187
#	12557
#	25152
#	40112
#	57500
#	73810
#	86775
#	105657
#	117580
#	129777
#	140907
#	157547
#	171747
#	183130
#	196935
#
# Disc length: 2770 seconds
#
# Revision: 2
# Processed by: cddbd v1.4PL0 Copyright (c) Steve Scherf et al.
# Submitted via: EasyCDDAExtractor 5.0.7
#
DISCID=d20ad00f
DTITLE=Various Artist - Old Songs - Vol 7
DYEAR=1900
DGENRE=
TTITLE0=Romeo and Juliet
TTITLE1=To Sir With Love
TTITLE2=To Love Somebody
TTITLE3=You Light Up My Life
TTITLE4=I Don't Know How To Love Him
TTITLE5=Raindrops Keep Falling On My Head
TTITLE6=My Way
TTITLE7=Puppy Love
TTITLE8=Goodbye Girl
TTITLE9=Devoted To You
TTITLE10=If You Leve Me Now
TTITLE11=Love Story
TTITLE12=Single Girl
TTITLE13=Moon River
TTITLE14=Pretty Little Baby
EXTD=
EXTT0=
EXTT1=
EXTT2=
EXTT3=
EXTT4=
EXTT5=
EXTT6=
EXTT7=
EXTT8=
EXTT9=
EXTT10=
EXTT11=
EXTT12=
EXTT13=
EXTT14=
PLAYORDER=
